Coordinates
version=1
nRows=4
nColumns=63
inDegrees=yes

Units are S.I. units (second, meters, Newtons, ...)
If the header above contains a line with 'inDegrees', this indicates whether rotational values are in degrees (yes) or radians (no).

endheader
time	pelvis_tilt	pelvis_list	pelvis_rotation	pelvis_tx	pelvis_ty	pelvis_tz	hip_flexion_r	hip_adduction_r	hip_rotation_r	knee_angle_r	knee_angle_r_beta	ankle_angle_r	subtalar_angle_r	mtp_angle_r	hip_flexion_l	hip_adduction_l	hip_rotation_l	knee_angle_l	knee_angle_l_beta	ankle_angle_l	subtalar_angle_l	mtp_angle_l	L5_S1_Flex_Ext	L5_S1_Lat_Bending	L5_S1_axial_rotation	L4_L5_Flex_Ext	L4_L5_Lat_Bending	L4_L5_axial_rotation	L3_L4_Flex_Ext	L3_L4_Lat_Bending	L3_L4_axial_rotation	L2_L3_Flex_Ext	L2_L3_Lat_Bending	L2_L3_axial_rotation	L1_L2_Flex_Ext	L1_L2_Lat_Bending	L1_L2_axial_rotation	L1_T12_Flex_Ext	L1_T12_Lat_Bending	L1_T12_axial_rotation	Abs_r3	Abs_r2	Abs_r1	Abs_t1	Abs_t2	neck_flexion	neck_bending	neck_rotation	arm_flex_r	arm_add_r	arm_rot_r	elbow_flex_r	pro_sup_r	wrist_flex_r	wrist_dev_r	arm_flex_l	arm_add_l	arm_rot_l	elbow_flex_l	pro_sup_l	wrist_flex_l	wrist_dev_l
      1.71186441	     -4.53223320	     -6.49250060	     68.66081180	      0.28915970	      0.58387666	      0.68602124	      8.61019550	     -1.28233413	     -3.72058271	      9.32239428	      0.16270647	     29.82238626	     13.63017466	      0.00000000	      7.78586338	     -1.41676868	    -13.42628661	      9.02279187	      0.15747743	     32.33155565	     11.63331325	      0.00000000	      0.08478521	     -0.21411298	      1.27043236	      0.15745462	     -0.28477027	      1.34983438	      0.13929363	     -0.52059431	      1.34983438	      0.09690102	     -0.52059431	      1.11162831	      0.07873155	     -0.43661920	      1.03222629	      0.04844627	     -0.33166101	      0.95282427	      0.60561230	     -2.42208890	      7.06576365	      0.00000000	      0.00000000	     24.47509798	      8.61516859	      2.53336268	     11.98373685	    -10.91145859	     49.81687158	     45.92844446	     82.11095137	     12.56331288	     17.74947321	     11.60447760	     -8.46984911	     51.48168396	     48.75203863	     83.25609657	     -0.21147273	     15.79112074
      1.72881356	     -4.54666083	     -6.49118906	     68.45729028	      0.28966920	      0.58389801	      0.68546875	      8.52978690	     -1.27129467	     -3.63779804	      9.17021462	      0.16005044	     29.77699493	     13.89913162	      0.00000000	      7.67022518	     -1.37384027	    -12.84657742	      8.84969246	      0.15445627	     32.19607684	     10.60069057	      0.00000000	      0.09750134	     -0.22010408	      1.26886355	      0.18106974	     -0.29273842	      1.34816752	      0.16018496	     -0.53516105	      1.34816752	      0.11143428	     -0.53516105	      1.11025560	      0.09053975	     -0.44883623	      1.03095163	      0.05571227	     -0.34094121	      0.95164766	      0.69644234	     -2.48986133	      7.05703839	      0.00000000	      0.00000000	     24.86985112	      8.38508090	      2.38125962	     12.14336343	    -10.94114155	     50.31433259	     46.01515666	     83.63813943	     12.79459456	     17.41737574	     11.62802130	     -8.42295303	     50.93952870	     48.82523206	     84.94628342	      1.99357366	     17.86960536
      1.74576271	     -4.63277007	     -6.48511347	     67.92456750	      0.29066223	      0.58389015	      0.68488665	      8.46554547	     -1.22699333	     -2.47424965	      8.94943216	      0.15619706	     29.56214754	     13.15307252	      0.00000000	      7.52822778	     -1.42072270	    -14.26213577	      8.71723082	      0.15214438	     32.30522048	     11.67352008	      0.00000000	      0.11180669	     -0.23401490	      1.38678005	      0.20763621	     -0.31123981	      1.47345380	      0.18368722	     -0.56898382	      1.47345380	      0.12778387	     -0.56898382	      1.21343254	      0.10382370	     -0.47720317	      1.12675879	      0.06388635	     -0.36248907	      1.04008504	      0.79862404	     -2.64722330	      7.71285461	      0.00000000	      0.00000000	     25.32258505	      7.90138712	      1.86007126	     11.88993738	    -10.98974574	     50.04677017	     46.25074184	     84.72182616	     12.80265131	     17.35145800	     11.83896173	     -8.35241379	     51.03718084	     48.74464792	     85.66018128	      3.74642861	     19.40973689
      1.76271186	     -4.74663117	     -6.53636895	     67.55738751	      0.29151671	      0.58380141	      0.68409908	      8.51045787	     -1.28089054	     -2.43176858	      8.91316741	      0.15556412	     29.55023764	     13.54898848	      0.00000000	      7.43245140	     -1.36572189	    -14.55503823	      8.46670535	      0.14777189	     32.19282889	     11.53630536	      0.00000000	      0.13211240	     -0.24774213	      1.46873382	      0.24534594	     -0.32949703	      1.56052969	      0.21704746	     -0.60236021	      1.56052969	      0.15099126	     -0.60236021	      1.28514210	      0.12267957	     -0.50519575	      1.19334623	      0.07548902	     -0.38375255	      1.10155037	      0.94366565	     -2.80250849	      8.16865691	      0.00000000	      0.00000000	     25.82948559	      7.48351568	      1.53265726	     11.60908118	    -10.96251384	     49.80417339	     46.27148617	     84.65602973	     12.75271714	     17.07989168	     11.84157650	     -8.28455773	     50.89451917	     48.67628730	     86.10597244	      4.94020671	     20.32873417
